<?xml version="1.0" encoding="iso-8859-1"?>
<!-- Uploaded to: SVG Repo, www.svgrepo.com, Generator: SVG Repo Mixer Tools -->
<svg height="800px" width="800px" version="1.1" id="Layer_1" xmlns="http://www.w3.org/2000/svg" xmlns:xlink="http://www.w3.org/1999/xlink" 
	 viewBox="0 0 511.984 511.984" xml:space="preserve">
<path style="fill:#CCD1D9;" d="M351.989,10.66c-46.123,0-87.677,19.523-116.879,50.749c-15.64-18.023-38.718-29.414-64.451-29.414
	c-47.132,0-85.333,38.202-85.333,85.333c0,0.711,0.008,1.422,0.031,2.125C36.655,129.328,0,172.373,0,223.989
	c0,58.904,47.749,106.652,106.661,106.652h245.328c88.356,0,159.995-71.622,159.995-159.987
	C511.984,82.29,440.346,10.66,351.989,10.66z"/>
<path style="fill:#AAB2BC;" d="M453.954,47.362c22.906,27.687,36.688,63.209,36.688,101.966
	c0,88.356-71.622,160.002-159.995,160.002H85.326c-24.016,0-46.171-7.952-63.998-21.343c19.46,25.905,50.436,42.654,85.333,42.654
	h245.328c88.356,0,159.995-71.622,159.995-159.987C511.984,121.047,489.391,76.705,453.954,47.362z"/>
<g>
	<path style="fill:#CCD1D9;" d="M191.994,426.639c0,5.906-4.781,10.672-10.672,10.672c-5.89,0-10.663-4.766-10.663-10.672
		c0-5.875,4.773-10.656,10.663-10.656C187.213,415.983,191.994,420.764,191.994,426.639z"/>
	<path style="fill:#CCD1D9;" d="M255.992,426.639c0,5.906-4.781,10.672-10.672,10.672c-5.89,0-10.663-4.766-10.663-10.672
		c0-5.875,4.773-10.656,10.663-10.656C251.211,415.983,255.992,420.764,255.992,426.639z"/>
	<path style="fill:#CCD1D9;" d="M287.21,362.312c0,5.891-4.766,10.672-10.655,10.672c-5.898,0-10.672-4.781-10.672-10.672
		c0-5.89,4.773-10.671,10.672-10.671C282.444,351.641,287.21,356.423,287.21,362.312z"/>
	<path style="fill:#CCD1D9;" d="M223.884,362.312c0,5.891-4.78,10.672-10.671,10.672c-5.891,0-10.664-4.781-10.664-10.672
		c0-5.89,4.773-10.671,10.664-10.671C219.104,351.641,223.884,356.423,223.884,362.312z"/>
	<path style="fill:#CCD1D9;" d="M159.995,490.637c0,5.906-4.78,10.672-10.671,10.672c-5.891,0-10.664-4.766-10.664-10.672
		c0-5.875,4.773-10.656,10.664-10.656C155.215,479.981,159.995,484.762,159.995,490.637z"/>
	<path style="fill:#CCD1D9;" d="M223.993,490.637c0,5.906-4.78,10.672-10.671,10.672c-5.891,0-10.664-4.766-10.664-10.672
		c0-5.875,4.773-10.656,10.664-10.656C219.213,479.981,223.993,484.762,223.993,490.637z"/>
</g>
<g>
	<path style="fill:#5D9CEC;" d="M85.318,501.324c-1.602,0-3.227-0.375-4.758-1.141c-5.273-2.641-7.406-9.047-4.773-14.297
		l63.998-127.995c2.633-5.281,9.039-7.406,14.313-4.781c5.266,2.625,7.405,9.03,4.766,14.312L94.865,495.418
		C92.998,499.152,89.232,501.324,85.318,501.324z"/>
	<path style="fill:#5D9CEC;" d="M277.305,501.324c-1.594,0-3.219-0.375-4.75-1.141c-5.273-2.641-7.406-9.047-4.773-14.297
		l63.99-127.995c2.641-5.281,9.046-7.406,14.312-4.781c5.281,2.625,7.406,9.03,4.781,14.312l-63.998,127.996
		C284.991,499.152,281.225,501.324,277.305,501.324z"/>
</g>
</svg>