<?xml version="1.0" encoding="iso-8859-1"?>
<!-- Uploaded to: SVG Repo, www.svgrepo.com, Generator: SVG Repo Mixer Tools -->
<svg version="1.1" id="Layer_1" xmlns="http://www.w3.org/2000/svg" xmlns:xlink="http://www.w3.org/1999/xlink" 
	 viewBox="0 0 512 512" xml:space="preserve">
<rect x="120.889" y="327.111" style="fill:#E17858;" width="284.444" height="184.889"/>
<rect x="263.111" y="327.111" style="fill:#FF4F19;" width="142.222" height="184.889"/>
<ellipse style="fill:#AF2E08;" cx="263.111" cy="327.111" rx="142.222" ry="42.667"/>
<path style="fill:#762204;" d="M263.111,284.444v85.333c78.546,0,142.222-19.102,142.222-42.667
	C405.333,303.546,341.658,284.444,263.111,284.444z"/>
<path style="fill:#CFCDD2;" d="M419.556,0H92.444C68.88,0,49.778,19.102,49.778,42.667S68.88,85.333,92.444,85.333h85.333
	c23.565,0,42.667,19.102,42.667,42.667s-19.102,42.667-42.667,42.667h-42.667c-23.565,0-42.667,19.102-42.667,42.667
	S111.546,256,135.111,256h42.667c23.565,0,42.667,19.102,42.667,42.667c0,23.565,19.102,42.667,42.667,42.667
	s42.667-19.102,42.667-42.667v-0.001c0-23.563,19.103-42.665,42.667-42.665c23.565,0,42.667-19.102,42.667-42.667
	s-19.102-42.667-42.667-42.667c-23.565,0-42.667-19.102-42.667-42.667s19.102-42.667,42.667-42.667h71.111
	c23.565,0,42.667-19.102,42.667-42.667S443.12,0,419.556,0z"/>
<path style="fill:#AEADB3;" d="M419.556,0H263.111v341.333c23.565,0,42.667-19.102,42.667-42.667v-0.001
	c0-23.563,19.103-42.665,42.667-42.665c23.565,0,42.667-19.102,42.667-42.667s-19.102-42.667-42.667-42.667
	c-23.565,0-42.667-19.102-42.667-42.667s19.102-42.667,42.667-42.667h71.111c23.565,0,42.667-19.102,42.667-42.667
	S443.12,0,419.556,0z"/>
</svg>